<mxfile host="app.diagrams.net" agent="Mozilla/5.0 (Windows NT 10.0; Win64; x64) AppleWebKit/537.36 (KHTML, like Gecko) Chrome/128.0.0.0 Safari/537.36" version="24.7.8">
  <diagram name="Page-1" id="fBOmCTxJh_x_Muk1704H">
    <mxGraphModel dx="985" dy="432" grid="1" gridSize="10" guides="1" tooltips="1" connect="1" arrows="1" fold="1" page="1" pageScale="1" pageWidth="3300" pageHeight="4681" math="0" shadow="0">
      <root>
        <mxCell id="0" />
        <mxCell id="1" parent="0" />
        <mxCell id="cfUvDjUMcZ3npQGwa5-E-1" value="start" style="ellipse;whiteSpace=wrap;html=1;" vertex="1" parent="1">
          <mxGeometry x="340" y="60" width="120" height="40" as="geometry" />
        </mxCell>
        <mxCell id="cfUvDjUMcZ3npQGwa5-E-2" value="" style="endArrow=classic;html=1;rounded=0;exitX=0.5;exitY=1;exitDx=0;exitDy=0;" edge="1" parent="1" source="cfUvDjUMcZ3npQGwa5-E-1">
          <mxGeometry width="50" height="50" relative="1" as="geometry">
            <mxPoint x="430" y="160" as="sourcePoint" />
            <mxPoint x="400" y="150" as="targetPoint" />
          </mxGeometry>
        </mxCell>
        <mxCell id="cfUvDjUMcZ3npQGwa5-E-4" value="output&amp;nbsp;&lt;div&gt;pilihan-pilihan&lt;/div&gt;" style="shape=parallelogram;perimeter=parallelogramPerimeter;whiteSpace=wrap;html=1;fixedSize=1;" vertex="1" parent="1">
          <mxGeometry x="340" y="160" width="120" height="60" as="geometry" />
        </mxCell>
        <mxCell id="cfUvDjUMcZ3npQGwa5-E-5" value="" style="endArrow=classic;html=1;rounded=0;" edge="1" parent="1">
          <mxGeometry width="50" height="50" relative="1" as="geometry">
            <mxPoint x="400" y="230" as="sourcePoint" />
            <mxPoint x="400" y="280" as="targetPoint" />
          </mxGeometry>
        </mxCell>
        <mxCell id="cfUvDjUMcZ3npQGwa5-E-6" value="input pilihan&lt;br&gt;(1, 2, 3, 0(exit))" style="shape=parallelogram;perimeter=parallelogramPerimeter;whiteSpace=wrap;html=1;fixedSize=1;" vertex="1" parent="1">
          <mxGeometry x="340" y="290" width="120" height="60" as="geometry" />
        </mxCell>
        <mxCell id="cfUvDjUMcZ3npQGwa5-E-7" value="" style="endArrow=classic;html=1;rounded=0;" edge="1" parent="1">
          <mxGeometry width="50" height="50" relative="1" as="geometry">
            <mxPoint x="399.5" y="360" as="sourcePoint" />
            <mxPoint x="399.5" y="410" as="targetPoint" />
          </mxGeometry>
        </mxCell>
        <mxCell id="cfUvDjUMcZ3npQGwa5-E-8" value="if&lt;div&gt;pilihan == 1&lt;/div&gt;" style="rhombus;whiteSpace=wrap;html=1;" vertex="1" parent="1">
          <mxGeometry x="340" y="420" width="120" height="90" as="geometry" />
        </mxCell>
        <mxCell id="cfUvDjUMcZ3npQGwa5-E-9" value="" style="endArrow=classic;html=1;rounded=0;" edge="1" parent="1">
          <mxGeometry width="50" height="50" relative="1" as="geometry">
            <mxPoint x="470" y="464.5" as="sourcePoint" />
            <mxPoint x="510" y="464.5" as="targetPoint" />
          </mxGeometry>
        </mxCell>
        <mxCell id="cfUvDjUMcZ3npQGwa5-E-10" value="" style="endArrow=classic;html=1;rounded=0;" edge="1" parent="1">
          <mxGeometry width="50" height="50" relative="1" as="geometry">
            <mxPoint x="399.5" y="520" as="sourcePoint" />
            <mxPoint x="399.5" y="565.5" as="targetPoint" />
          </mxGeometry>
        </mxCell>
        <mxCell id="cfUvDjUMcZ3npQGwa5-E-11" value="if&lt;div&gt;pilihan == 2&lt;/div&gt;" style="rhombus;whiteSpace=wrap;html=1;" vertex="1" parent="1">
          <mxGeometry x="520" y="420" width="120" height="90" as="geometry" />
        </mxCell>
        <mxCell id="cfUvDjUMcZ3npQGwa5-E-12" value="" style="endArrow=classic;html=1;rounded=0;" edge="1" parent="1">
          <mxGeometry width="50" height="50" relative="1" as="geometry">
            <mxPoint x="650" y="464.5" as="sourcePoint" />
            <mxPoint x="690" y="464.5" as="targetPoint" />
          </mxGeometry>
        </mxCell>
        <mxCell id="cfUvDjUMcZ3npQGwa5-E-13" value="if&lt;div&gt;pilihan == 3&lt;/div&gt;" style="rhombus;whiteSpace=wrap;html=1;" vertex="1" parent="1">
          <mxGeometry x="700" y="420" width="120" height="90" as="geometry" />
        </mxCell>
        <mxCell id="cfUvDjUMcZ3npQGwa5-E-14" value="" style="endArrow=classic;html=1;rounded=0;" edge="1" parent="1">
          <mxGeometry width="50" height="50" relative="1" as="geometry">
            <mxPoint x="579.5" y="520" as="sourcePoint" />
            <mxPoint x="579.5" y="565.5" as="targetPoint" />
          </mxGeometry>
        </mxCell>
        <mxCell id="cfUvDjUMcZ3npQGwa5-E-15" value="" style="endArrow=classic;html=1;rounded=0;" edge="1" parent="1">
          <mxGeometry width="50" height="50" relative="1" as="geometry">
            <mxPoint x="759.5" y="520" as="sourcePoint" />
            <mxPoint x="759.5" y="565.5" as="targetPoint" />
          </mxGeometry>
        </mxCell>
        <mxCell id="cfUvDjUMcZ3npQGwa5-E-16" value="true" style="text;strokeColor=none;align=center;fillColor=none;html=1;verticalAlign=middle;whiteSpace=wrap;rounded=0;" vertex="1" parent="1">
          <mxGeometry x="350" y="520" width="60" height="30" as="geometry" />
        </mxCell>
        <mxCell id="cfUvDjUMcZ3npQGwa5-E-17" value="true" style="text;strokeColor=none;align=center;fillColor=none;html=1;verticalAlign=middle;whiteSpace=wrap;rounded=0;" vertex="1" parent="1">
          <mxGeometry x="530" y="520" width="60" height="30" as="geometry" />
        </mxCell>
        <mxCell id="cfUvDjUMcZ3npQGwa5-E-18" value="true" style="text;strokeColor=none;align=center;fillColor=none;html=1;verticalAlign=middle;whiteSpace=wrap;rounded=0;" vertex="1" parent="1">
          <mxGeometry x="710" y="520" width="60" height="30" as="geometry" />
        </mxCell>
        <mxCell id="cfUvDjUMcZ3npQGwa5-E-19" value="false" style="text;strokeColor=none;align=center;fillColor=none;html=1;verticalAlign=middle;whiteSpace=wrap;rounded=0;" vertex="1" parent="1">
          <mxGeometry x="460" y="430" width="60" height="30" as="geometry" />
        </mxCell>
        <mxCell id="cfUvDjUMcZ3npQGwa5-E-20" value="false" style="text;strokeColor=none;align=center;fillColor=none;html=1;verticalAlign=middle;whiteSpace=wrap;rounded=0;" vertex="1" parent="1">
          <mxGeometry x="640" y="430" width="60" height="30" as="geometry" />
        </mxCell>
        <mxCell id="cfUvDjUMcZ3npQGwa5-E-21" value="" style="endArrow=classic;html=1;rounded=0;" edge="1" parent="1">
          <mxGeometry width="50" height="50" relative="1" as="geometry">
            <mxPoint x="830" y="464.5" as="sourcePoint" />
            <mxPoint x="870" y="464.5" as="targetPoint" />
          </mxGeometry>
        </mxCell>
        <mxCell id="cfUvDjUMcZ3npQGwa5-E-22" value="false" style="text;strokeColor=none;align=center;fillColor=none;html=1;verticalAlign=middle;whiteSpace=wrap;rounded=0;" vertex="1" parent="1">
          <mxGeometry x="820" y="430" width="60" height="30" as="geometry" />
        </mxCell>
        <mxCell id="cfUvDjUMcZ3npQGwa5-E-23" value="if&lt;div&gt;pilihan == 0&lt;/div&gt;" style="rhombus;whiteSpace=wrap;html=1;" vertex="1" parent="1">
          <mxGeometry x="880" y="420" width="120" height="90" as="geometry" />
        </mxCell>
        <mxCell id="cfUvDjUMcZ3npQGwa5-E-24" value="" style="endArrow=classic;html=1;rounded=0;" edge="1" parent="1">
          <mxGeometry width="50" height="50" relative="1" as="geometry">
            <mxPoint x="939.5" y="520" as="sourcePoint" />
            <mxPoint x="939.5" y="565.5" as="targetPoint" />
          </mxGeometry>
        </mxCell>
        <mxCell id="cfUvDjUMcZ3npQGwa5-E-25" value="true" style="text;strokeColor=none;align=center;fillColor=none;html=1;verticalAlign=middle;whiteSpace=wrap;rounded=0;" vertex="1" parent="1">
          <mxGeometry x="890" y="520" width="60" height="30" as="geometry" />
        </mxCell>
        <mxCell id="cfUvDjUMcZ3npQGwa5-E-26" value="end" style="ellipse;whiteSpace=wrap;html=1;" vertex="1" parent="1">
          <mxGeometry x="880" y="570" width="120" height="40" as="geometry" />
        </mxCell>
        <mxCell id="cfUvDjUMcZ3npQGwa5-E-27" value="" style="endArrow=classic;html=1;rounded=0;" edge="1" parent="1">
          <mxGeometry width="50" height="50" relative="1" as="geometry">
            <mxPoint x="1010" y="464.5" as="sourcePoint" />
            <mxPoint x="1050" y="464.5" as="targetPoint" />
          </mxGeometry>
        </mxCell>
        <mxCell id="cfUvDjUMcZ3npQGwa5-E-28" value="false" style="text;strokeColor=none;align=center;fillColor=none;html=1;verticalAlign=middle;whiteSpace=wrap;rounded=0;" vertex="1" parent="1">
          <mxGeometry x="1000" y="430" width="60" height="30" as="geometry" />
        </mxCell>
        <mxCell id="cfUvDjUMcZ3npQGwa5-E-29" value="output&amp;nbsp;&lt;div&gt;input salah!&lt;/div&gt;" style="shape=parallelogram;perimeter=parallelogramPerimeter;whiteSpace=wrap;html=1;fixedSize=1;" vertex="1" parent="1">
          <mxGeometry x="1060" y="435" width="120" height="60" as="geometry" />
        </mxCell>
        <mxCell id="cfUvDjUMcZ3npQGwa5-E-30" value="input&lt;div&gt;jarak, waktu&lt;/div&gt;" style="shape=parallelogram;perimeter=parallelogramPerimeter;whiteSpace=wrap;html=1;fixedSize=1;" vertex="1" parent="1">
          <mxGeometry x="340" y="570" width="120" height="60" as="geometry" />
        </mxCell>
        <mxCell id="cfUvDjUMcZ3npQGwa5-E-31" value="input massa,&lt;div&gt;&lt;span style=&quot;background-color: initial;&quot;&gt;g,&amp;nbsp;&lt;/span&gt;&lt;span style=&quot;background-color: initial;&quot;&gt;ketinggian&lt;/span&gt;&lt;/div&gt;" style="shape=parallelogram;perimeter=parallelogramPerimeter;whiteSpace=wrap;html=1;fixedSize=1;" vertex="1" parent="1">
          <mxGeometry x="520" y="570" width="120" height="60" as="geometry" />
        </mxCell>
        <mxCell id="cfUvDjUMcZ3npQGwa5-E-32" value="input&lt;div&gt;massa, kecepatan&lt;/div&gt;" style="shape=parallelogram;perimeter=parallelogramPerimeter;whiteSpace=wrap;html=1;fixedSize=1;" vertex="1" parent="1">
          <mxGeometry x="700" y="570" width="120" height="60" as="geometry" />
        </mxCell>
        <mxCell id="cfUvDjUMcZ3npQGwa5-E-36" value="" style="endArrow=classic;html=1;rounded=0;" edge="1" parent="1">
          <mxGeometry width="50" height="50" relative="1" as="geometry">
            <mxPoint x="399.5" y="750" as="sourcePoint" />
            <mxPoint x="399.5" y="795.5" as="targetPoint" />
          </mxGeometry>
        </mxCell>
        <mxCell id="cfUvDjUMcZ3npQGwa5-E-37" value="output&lt;div&gt;kecepatan&lt;/div&gt;" style="shape=parallelogram;perimeter=parallelogramPerimeter;whiteSpace=wrap;html=1;fixedSize=1;" vertex="1" parent="1">
          <mxGeometry x="340" y="800" width="120" height="60" as="geometry" />
        </mxCell>
        <mxCell id="cfUvDjUMcZ3npQGwa5-E-38" value="" style="endArrow=classic;html=1;rounded=0;" edge="1" parent="1">
          <mxGeometry width="50" height="50" relative="1" as="geometry">
            <mxPoint x="579.5" y="750" as="sourcePoint" />
            <mxPoint x="579.5" y="795.5" as="targetPoint" />
          </mxGeometry>
        </mxCell>
        <mxCell id="cfUvDjUMcZ3npQGwa5-E-39" value="output&amp;nbsp;&lt;div&gt;Energi Potensial&lt;/div&gt;" style="shape=parallelogram;perimeter=parallelogramPerimeter;whiteSpace=wrap;html=1;fixedSize=1;" vertex="1" parent="1">
          <mxGeometry x="520" y="800" width="120" height="60" as="geometry" />
        </mxCell>
        <mxCell id="cfUvDjUMcZ3npQGwa5-E-40" value="" style="endArrow=classic;html=1;rounded=0;" edge="1" parent="1">
          <mxGeometry width="50" height="50" relative="1" as="geometry">
            <mxPoint x="759.5" y="750" as="sourcePoint" />
            <mxPoint x="759.5" y="795.5" as="targetPoint" />
          </mxGeometry>
        </mxCell>
        <mxCell id="cfUvDjUMcZ3npQGwa5-E-41" value="output&lt;div&gt;Energi Kinetik&lt;/div&gt;" style="shape=parallelogram;perimeter=parallelogramPerimeter;whiteSpace=wrap;html=1;fixedSize=1;" vertex="1" parent="1">
          <mxGeometry x="700" y="800" width="120" height="60" as="geometry" />
        </mxCell>
        <mxCell id="cfUvDjUMcZ3npQGwa5-E-42" value="proses&lt;div&gt;kecepatan =&amp;nbsp;&lt;/div&gt;&lt;div&gt;jarak / waktu&lt;/div&gt;" style="rounded=0;whiteSpace=wrap;html=1;" vertex="1" parent="1">
          <mxGeometry x="340" y="690" width="120" height="60" as="geometry" />
        </mxCell>
        <mxCell id="cfUvDjUMcZ3npQGwa5-E-43" value="" style="endArrow=classic;html=1;rounded=0;" edge="1" parent="1">
          <mxGeometry width="50" height="50" relative="1" as="geometry">
            <mxPoint x="399.41" y="640" as="sourcePoint" />
            <mxPoint x="399.41" y="685.5" as="targetPoint" />
          </mxGeometry>
        </mxCell>
        <mxCell id="cfUvDjUMcZ3npQGwa5-E-44" value="" style="endArrow=classic;html=1;rounded=0;" edge="1" parent="1">
          <mxGeometry width="50" height="50" relative="1" as="geometry">
            <mxPoint x="579.41" y="640" as="sourcePoint" />
            <mxPoint x="579.41" y="685.5" as="targetPoint" />
          </mxGeometry>
        </mxCell>
        <mxCell id="cfUvDjUMcZ3npQGwa5-E-45" value="" style="endArrow=classic;html=1;rounded=0;" edge="1" parent="1">
          <mxGeometry width="50" height="50" relative="1" as="geometry">
            <mxPoint x="759.41" y="640" as="sourcePoint" />
            <mxPoint x="759.41" y="685.5" as="targetPoint" />
          </mxGeometry>
        </mxCell>
        <mxCell id="cfUvDjUMcZ3npQGwa5-E-46" value="proses&lt;div&gt;Energi Potensial =&amp;nbsp;&lt;/div&gt;&lt;div&gt;masa * g * ketinggian&lt;/div&gt;" style="rounded=0;whiteSpace=wrap;html=1;" vertex="1" parent="1">
          <mxGeometry x="520" y="690" width="120" height="60" as="geometry" />
        </mxCell>
        <mxCell id="cfUvDjUMcZ3npQGwa5-E-47" value="proses&lt;div&gt;Energi Potensial =&amp;nbsp;&lt;/div&gt;&lt;div&gt;0.5 * massa * kec^2&lt;/div&gt;" style="rounded=0;whiteSpace=wrap;html=1;" vertex="1" parent="1">
          <mxGeometry x="700" y="690" width="120" height="60" as="geometry" />
        </mxCell>
        <mxCell id="cfUvDjUMcZ3npQGwa5-E-48" value="" style="endArrow=none;html=1;rounded=0;" edge="1" parent="1">
          <mxGeometry width="50" height="50" relative="1" as="geometry">
            <mxPoint x="400" y="910" as="sourcePoint" />
            <mxPoint x="760" y="910" as="targetPoint" />
          </mxGeometry>
        </mxCell>
        <mxCell id="cfUvDjUMcZ3npQGwa5-E-49" value="" style="endArrow=none;html=1;rounded=0;entryX=0.5;entryY=1;entryDx=0;entryDy=0;" edge="1" parent="1" target="cfUvDjUMcZ3npQGwa5-E-37">
          <mxGeometry width="50" height="50" relative="1" as="geometry">
            <mxPoint x="400" y="910" as="sourcePoint" />
            <mxPoint x="360" y="880" as="targetPoint" />
          </mxGeometry>
        </mxCell>
        <mxCell id="cfUvDjUMcZ3npQGwa5-E-50" value="" style="endArrow=none;html=1;rounded=0;entryX=0.5;entryY=1;entryDx=0;entryDy=0;" edge="1" parent="1">
          <mxGeometry width="50" height="50" relative="1" as="geometry">
            <mxPoint x="759.4100000000001" y="910" as="sourcePoint" />
            <mxPoint x="759.4100000000001" y="860" as="targetPoint" />
          </mxGeometry>
        </mxCell>
        <mxCell id="cfUvDjUMcZ3npQGwa5-E-51" value="" style="endArrow=none;html=1;rounded=0;entryX=0.5;entryY=1;entryDx=0;entryDy=0;" edge="1" parent="1">
          <mxGeometry width="50" height="50" relative="1" as="geometry">
            <mxPoint x="579.41" y="910" as="sourcePoint" />
            <mxPoint x="579.41" y="860" as="targetPoint" />
          </mxGeometry>
        </mxCell>
        <mxCell id="cfUvDjUMcZ3npQGwa5-E-53" value="" style="endArrow=none;html=1;rounded=0;entryX=0.5;entryY=1;entryDx=0;entryDy=0;" edge="1" parent="1">
          <mxGeometry width="50" height="50" relative="1" as="geometry">
            <mxPoint x="579.41" y="960" as="sourcePoint" />
            <mxPoint x="579.41" y="910" as="targetPoint" />
          </mxGeometry>
        </mxCell>
        <mxCell id="cfUvDjUMcZ3npQGwa5-E-54" value="" style="endArrow=none;html=1;rounded=0;" edge="1" parent="1">
          <mxGeometry width="50" height="50" relative="1" as="geometry">
            <mxPoint x="290" y="960" as="sourcePoint" />
            <mxPoint x="580" y="960" as="targetPoint" />
          </mxGeometry>
        </mxCell>
        <mxCell id="cfUvDjUMcZ3npQGwa5-E-55" value="" style="endArrow=none;html=1;rounded=0;" edge="1" parent="1">
          <mxGeometry width="50" height="50" relative="1" as="geometry">
            <mxPoint x="289.99999999999994" y="960" as="sourcePoint" />
            <mxPoint x="290" y="190" as="targetPoint" />
          </mxGeometry>
        </mxCell>
        <mxCell id="cfUvDjUMcZ3npQGwa5-E-56" value="" style="endArrow=classic;html=1;rounded=0;" edge="1" parent="1" target="cfUvDjUMcZ3npQGwa5-E-4">
          <mxGeometry width="50" height="50" relative="1" as="geometry">
            <mxPoint x="290" y="190" as="sourcePoint" />
            <mxPoint x="290" y="240" as="targetPoint" />
          </mxGeometry>
        </mxCell>
        <mxCell id="cfUvDjUMcZ3npQGwa5-E-57" value="" style="endArrow=none;html=1;rounded=0;" edge="1" parent="1">
          <mxGeometry width="50" height="50" relative="1" as="geometry">
            <mxPoint x="580" y="960" as="sourcePoint" />
            <mxPoint x="1120" y="960" as="targetPoint" />
          </mxGeometry>
        </mxCell>
        <mxCell id="cfUvDjUMcZ3npQGwa5-E-58" value="" style="endArrow=none;html=1;rounded=0;entryX=0.5;entryY=1;entryDx=0;entryDy=0;" edge="1" parent="1">
          <mxGeometry width="50" height="50" relative="1" as="geometry">
            <mxPoint x="1119" y="960" as="sourcePoint" />
            <mxPoint x="1119.17" y="495" as="targetPoint" />
          </mxGeometry>
        </mxCell>
        <mxCell id="cfUvDjUMcZ3npQGwa5-E-59" value="" style="endArrow=classic;html=1;rounded=0;" edge="1" parent="1">
          <mxGeometry width="50" height="50" relative="1" as="geometry">
            <mxPoint x="880" y="960" as="sourcePoint" />
            <mxPoint x="850" y="960" as="targetPoint" />
          </mxGeometry>
        </mxCell>
        <mxCell id="cfUvDjUMcZ3npQGwa5-E-60" value="" style="endArrow=classic;html=1;rounded=0;" edge="1" parent="1">
          <mxGeometry width="50" height="50" relative="1" as="geometry">
            <mxPoint x="395" y="960" as="sourcePoint" />
            <mxPoint x="365" y="960" as="targetPoint" />
          </mxGeometry>
        </mxCell>
        <mxCell id="cfUvDjUMcZ3npQGwa5-E-61" value="" style="endArrow=classic;html=1;rounded=0;" edge="1" parent="1">
          <mxGeometry width="50" height="50" relative="1" as="geometry">
            <mxPoint x="580" y="910" as="sourcePoint" />
            <mxPoint x="580" y="950" as="targetPoint" />
          </mxGeometry>
        </mxCell>
        <mxCell id="cfUvDjUMcZ3npQGwa5-E-62" value="1" style="ellipse;whiteSpace=wrap;html=1;aspect=fixed;" vertex="1" parent="1">
          <mxGeometry x="420" y="1100" width="40" height="40" as="geometry" />
        </mxCell>
        <mxCell id="cfUvDjUMcZ3npQGwa5-E-63" value="2, 3" style="ellipse;whiteSpace=wrap;html=1;aspect=fixed;" vertex="1" parent="1">
          <mxGeometry x="420" y="1170" width="40" height="40" as="geometry" />
        </mxCell>
        <mxCell id="cfUvDjUMcZ3npQGwa5-E-64" value="4" style="ellipse;whiteSpace=wrap;html=1;aspect=fixed;" vertex="1" parent="1">
          <mxGeometry x="500" y="1170" width="40" height="40" as="geometry" />
        </mxCell>
        <mxCell id="cfUvDjUMcZ3npQGwa5-E-65" value="5" style="ellipse;whiteSpace=wrap;html=1;aspect=fixed;" vertex="1" parent="1">
          <mxGeometry x="580" y="1170" width="40" height="40" as="geometry" />
        </mxCell>
        <mxCell id="cfUvDjUMcZ3npQGwa5-E-66" value="6" style="ellipse;whiteSpace=wrap;html=1;aspect=fixed;" vertex="1" parent="1">
          <mxGeometry x="660" y="1170" width="40" height="40" as="geometry" />
        </mxCell>
        <mxCell id="cfUvDjUMcZ3npQGwa5-E-67" value="7" style="ellipse;whiteSpace=wrap;html=1;aspect=fixed;" vertex="1" parent="1">
          <mxGeometry x="740" y="1170" width="40" height="40" as="geometry" />
        </mxCell>
        <mxCell id="cfUvDjUMcZ3npQGwa5-E-68" value="8, 9, 10" style="ellipse;whiteSpace=wrap;html=1;aspect=fixed;" vertex="1" parent="1">
          <mxGeometry x="420" y="1240" width="40" height="40" as="geometry" />
        </mxCell>
        <mxCell id="cfUvDjUMcZ3npQGwa5-E-69" value="11, 12, 13" style="ellipse;whiteSpace=wrap;html=1;aspect=fixed;" vertex="1" parent="1">
          <mxGeometry x="500" y="1240" width="40" height="40" as="geometry" />
        </mxCell>
        <mxCell id="cfUvDjUMcZ3npQGwa5-E-70" value="14, 15, 16" style="ellipse;whiteSpace=wrap;html=1;aspect=fixed;" vertex="1" parent="1">
          <mxGeometry x="580" y="1240" width="40" height="40" as="geometry" />
        </mxCell>
        <mxCell id="cfUvDjUMcZ3npQGwa5-E-71" value="17" style="ellipse;whiteSpace=wrap;html=1;aspect=fixed;" vertex="1" parent="1">
          <mxGeometry x="660" y="1240" width="40" height="40" as="geometry" />
        </mxCell>
        <mxCell id="cfUvDjUMcZ3npQGwa5-E-72" value="" style="endArrow=classic;html=1;rounded=0;entryX=0.5;entryY=0;entryDx=0;entryDy=0;" edge="1" parent="1" target="cfUvDjUMcZ3npQGwa5-E-63">
          <mxGeometry width="50" height="50" relative="1" as="geometry">
            <mxPoint x="439.52" y="1140" as="sourcePoint" />
            <mxPoint x="439.52" y="1185.5" as="targetPoint" />
          </mxGeometry>
        </mxCell>
        <mxCell id="cfUvDjUMcZ3npQGwa5-E-73" value="" style="endArrow=classic;html=1;rounded=0;entryX=0.5;entryY=0;entryDx=0;entryDy=0;" edge="1" parent="1">
          <mxGeometry width="50" height="50" relative="1" as="geometry">
            <mxPoint x="439.52" y="1210" as="sourcePoint" />
            <mxPoint x="440" y="1240" as="targetPoint" />
          </mxGeometry>
        </mxCell>
        <mxCell id="cfUvDjUMcZ3npQGwa5-E-74" value="" style="endArrow=classic;html=1;rounded=0;entryX=0;entryY=0.5;entryDx=0;entryDy=0;exitX=1;exitY=0.5;exitDx=0;exitDy=0;" edge="1" parent="1" source="cfUvDjUMcZ3npQGwa5-E-63" target="cfUvDjUMcZ3npQGwa5-E-64">
          <mxGeometry width="50" height="50" relative="1" as="geometry">
            <mxPoint x="459.52" y="1160" as="sourcePoint" />
            <mxPoint x="460" y="1190" as="targetPoint" />
          </mxGeometry>
        </mxCell>
        <mxCell id="cfUvDjUMcZ3npQGwa5-E-75" value="" style="endArrow=classic;html=1;rounded=0;entryX=0;entryY=0.5;entryDx=0;entryDy=0;exitX=1;exitY=0.5;exitDx=0;exitDy=0;" edge="1" parent="1">
          <mxGeometry width="50" height="50" relative="1" as="geometry">
            <mxPoint x="540" y="1189.52" as="sourcePoint" />
            <mxPoint x="580" y="1189.52" as="targetPoint" />
          </mxGeometry>
        </mxCell>
        <mxCell id="cfUvDjUMcZ3npQGwa5-E-76" value="" style="endArrow=classic;html=1;rounded=0;entryX=0;entryY=0.5;entryDx=0;entryDy=0;exitX=1;exitY=0.5;exitDx=0;exitDy=0;" edge="1" parent="1">
          <mxGeometry width="50" height="50" relative="1" as="geometry">
            <mxPoint x="620" y="1189.52" as="sourcePoint" />
            <mxPoint x="660" y="1189.52" as="targetPoint" />
          </mxGeometry>
        </mxCell>
        <mxCell id="cfUvDjUMcZ3npQGwa5-E-77" value="" style="endArrow=classic;html=1;rounded=0;entryX=0;entryY=0.5;entryDx=0;entryDy=0;exitX=1;exitY=0.5;exitDx=0;exitDy=0;" edge="1" parent="1">
          <mxGeometry width="50" height="50" relative="1" as="geometry">
            <mxPoint x="700" y="1189.52" as="sourcePoint" />
            <mxPoint x="740" y="1189.52" as="targetPoint" />
          </mxGeometry>
        </mxCell>
        <mxCell id="cfUvDjUMcZ3npQGwa5-E-78" value="" style="endArrow=classic;html=1;rounded=0;entryX=0.5;entryY=0;entryDx=0;entryDy=0;" edge="1" parent="1">
          <mxGeometry width="50" height="50" relative="1" as="geometry">
            <mxPoint x="519.52" y="1210" as="sourcePoint" />
            <mxPoint x="520" y="1240" as="targetPoint" />
          </mxGeometry>
        </mxCell>
        <mxCell id="cfUvDjUMcZ3npQGwa5-E-79" value="" style="endArrow=classic;html=1;rounded=0;entryX=0.5;entryY=0;entryDx=0;entryDy=0;" edge="1" parent="1">
          <mxGeometry width="50" height="50" relative="1" as="geometry">
            <mxPoint x="599.52" y="1210" as="sourcePoint" />
            <mxPoint x="600" y="1240" as="targetPoint" />
          </mxGeometry>
        </mxCell>
        <mxCell id="cfUvDjUMcZ3npQGwa5-E-80" value="" style="endArrow=classic;html=1;rounded=0;entryX=0.5;entryY=0;entryDx=0;entryDy=0;" edge="1" parent="1">
          <mxGeometry width="50" height="50" relative="1" as="geometry">
            <mxPoint x="679.52" y="1210" as="sourcePoint" />
            <mxPoint x="680" y="1240" as="targetPoint" />
          </mxGeometry>
        </mxCell>
      </root>
    </mxGraphModel>
  </diagram>
</mxfile>
